<svg width="100" height="100" viewBox="0 0 100 100" fill="none" xmlns="http://www.w3.org/2000/svg">
<path d="M50 100C77.6142 100 100 77.6142 100 50C100 22.3858 77.6142 0 50 0C22.3858 0 0 22.3858 0 50C0 77.6142 22.3858 100 50 100Z" fill="black"/>
<path d="M30.5455 69.7282C27.1818 69.7282 24.2803 68.9858 21.8409 67.501C19.4167 66.001 17.5455 63.9101 16.2273 61.2282C14.9242 58.5313 14.2727 55.3949 14.2727 51.8192C14.2727 48.2434 14.9242 45.0919 16.2273 42.3646C17.5455 39.6222 19.3788 37.4858 21.7273 35.9555C24.0909 34.4101 26.8485 33.6373 30 33.6373C31.8182 33.6373 33.6136 33.9404 35.3864 34.5464C37.1591 35.1525 38.7727 36.1373 40.2273 37.501C41.6818 38.8495 42.8409 40.6373 43.7045 42.8646C44.5682 45.0919 45 47.8343 45 51.0919V53.3646H18.0909V48.7282H39.5455C39.5455 46.7586 39.1515 45.001 38.3636 43.4555C37.5909 41.9101 36.4848 40.6904 35.0455 39.7964C33.6212 38.9025 31.9394 38.4555 30 38.4555C27.8636 38.4555 26.0152 38.9858 24.4545 40.0464C22.9091 41.0919 21.7197 42.4555 20.8864 44.1373C20.053 45.8192 19.6364 47.6222 19.6364 49.5464V52.6373C19.6364 55.2737 20.0909 57.5086 21 59.3419C21.9242 61.1601 23.2045 62.5464 24.8409 63.501C26.4773 64.4404 28.3788 64.9101 30.5455 64.9101C31.9545 64.9101 33.2273 64.7131 34.3636 64.3192C35.5152 63.9101 36.5076 63.304 37.3409 62.501C38.1742 61.6828 38.8182 60.6676 39.2727 59.4555L44.4545 60.9101C43.9091 62.6676 42.9924 64.2131 41.7045 65.5464C40.4167 66.8646 38.8258 67.8949 36.9318 68.6373C35.0379 69.3646 32.9091 69.7282 30.5455 69.7282ZM56.2216 34.0919L64.5852 48.3646L72.9489 34.0919H79.1307L67.858 51.5464L79.1307 69.001H72.9489L64.5852 55.4555L56.2216 69.001H50.0398L61.1307 51.5464L50.0398 34.0919H56.2216Z" fill="white"/>
</svg>
