<svg width="379" height="100" viewBox="0 0 379 100" fill="none" xmlns="http://www.w3.org/2000/svg">
<path d="M225.306 58.8163C230.176 58.8163 234.123 54.8691 234.123 50.0001C234.123 45.131 230.176 41.1838 225.306 41.1838C220.437 41.1838 216.49 45.131 216.49 50.0001C216.49 54.8691 220.437 58.8163 225.306 58.8163Z" fill="#61DAFB"/>
<path d="M225.307 68.0626C251.433 68.0626 272.613 59.9757 272.613 50C272.613 40.0244 251.433 31.9375 225.307 31.9375C199.18 31.9375 178 40.0244 178 50C178 59.9757 199.18 68.0626 225.307 68.0626Z" stroke="#61DAFB" stroke-width="5"/>
<path d="M209.664 59.0313C222.727 81.6577 240.321 95.9566 248.96 90.9687C257.599 85.9809 254.013 63.5951 240.949 40.9687C227.886 18.3423 210.292 4.04343 201.653 9.03126C193.014 14.0191 196.601 36.4049 209.664 59.0313Z" stroke="#61DAFB" stroke-width="5"/>
<path d="M209.664 40.9687C196.601 63.5951 193.014 85.9809 201.653 90.9687C210.292 95.9565 227.886 81.6576 240.949 59.0312C254.013 36.4048 257.599 14.0191 248.96 9.03124C240.321 4.04341 222.727 18.3423 209.664 40.9687Z" stroke="#61DAFB" stroke-width="5"/>
<path d="M22.1455 0.272949L24.8141 5.28508C25.414 6.21001 26.064 7.0287 26.8295 7.79114C29.074 10.0076 31.1661 12.3732 33.0916 14.8719C37.6132 20.8089 40.6629 27.4022 42.8409 34.5329C44.1471 38.8888 44.8564 43.3572 44.9095 47.8756C45.1282 61.384 40.4973 72.9831 31.1605 82.6231C29.6417 84.1517 28.001 85.5542 26.2546 86.8165C25.3296 86.8165 24.8922 86.1072 24.511 85.4541C23.8167 84.2431 23.3547 82.9131 23.1486 81.5325C22.8205 79.8983 22.6048 78.264 22.7111 76.5766V75.8142C22.6361 75.6517 21.8205 0.657296 22.1455 0.272949V0.272949Z" fill="#599636"/>
<path d="M22.1455 0.107501C22.0361 -0.111232 21.9268 0.0543804 21.8174 0.160623C21.8705 1.25429 21.4893 2.22922 20.8925 3.1604C20.2363 4.08533 19.3676 4.79466 18.4958 5.5571C13.6524 9.75054 9.84015 14.8158 6.78725 20.481C2.72504 28.1054 0.631444 36.2767 0.037737 44.8792C-0.234118 47.9821 1.01892 58.9313 1.99697 62.0904C4.66553 70.4773 9.45893 77.5049 15.6679 83.6045C17.1927 85.0731 18.8239 86.4355 20.5113 87.7448C21.0018 87.7448 21.055 87.3073 21.1675 86.9823C21.3825 86.287 21.5465 85.5768 21.658 84.8575L22.7517 76.6893L22.1455 0.107501Z" fill="#6CAC48"/>
<path d="M24.814 90.1352C24.9234 88.8853 25.5234 87.8479 26.1765 86.8136C25.5203 86.5417 25.0328 86.0011 24.6516 85.3981C24.3228 84.8271 24.0507 84.2253 23.8391 83.6013C23.0767 81.314 22.9142 78.9142 22.6955 76.5769V75.1614C22.4236 75.3801 22.3673 77.23 22.3673 77.5049C22.2083 79.9753 21.8805 82.4319 21.3862 84.8575C21.2237 85.8387 21.1143 86.8167 20.5112 87.6885C20.5112 87.7979 20.5112 87.9072 20.5644 88.0697C21.5455 90.957 21.8143 93.8974 21.9799 96.894V97.9877C21.9799 99.2938 21.9268 99.0189 23.0111 99.4563C23.4485 99.6188 23.936 99.6751 24.3735 100C24.7016 100 24.7547 99.7282 24.7547 99.5095L24.5922 97.7127V92.7006C24.5391 91.8257 24.7016 90.957 24.8109 90.1383L24.814 90.1352Z" fill="#C2BFBF"/>
<path d="M111 100C138.614 100 161 77.6142 161 50C161 22.3858 138.614 0 111 0C83.3858 0 61 22.3858 61 50C61 77.6142 83.3858 100 111 100Z" fill="black"/>
<path d="M91.5455 69.7282C88.1818 69.7282 85.2803 68.9858 82.8409 67.501C80.4167 66.001 78.5455 63.9101 77.2273 61.2282C75.9242 58.5313 75.2727 55.3949 75.2727 51.8192C75.2727 48.2434 75.9242 45.0919 77.2273 42.3646C78.5455 39.6222 80.3788 37.4858 82.7273 35.9555C85.0909 34.4101 87.8485 33.6373 91 33.6373C92.8182 33.6373 94.6136 33.9404 96.3864 34.5464C98.1591 35.1525 99.7727 36.1373 101.227 37.501C102.682 38.8495 103.841 40.6373 104.705 42.8646C105.568 45.0919 106 47.8343 106 51.0919V53.3646H79.0909V48.7282H100.545C100.545 46.7586 100.152 45.001 99.3636 43.4555C98.5909 41.9101 97.4848 40.6904 96.0455 39.7964C94.6212 38.9025 92.9394 38.4555 91 38.4555C88.8636 38.4555 87.0152 38.9858 85.4545 40.0464C83.9091 41.0919 82.7197 42.4555 81.8864 44.1373C81.053 45.8192 80.6364 47.6222 80.6364 49.5464V52.6373C80.6364 55.2737 81.0909 57.5086 82 59.3419C82.9242 61.1601 84.2045 62.5464 85.8409 63.501C87.4773 64.4404 89.3788 64.9101 91.5455 64.9101C92.9545 64.9101 94.2273 64.7131 95.3636 64.3192C96.5152 63.9101 97.5076 63.304 98.3409 62.501C99.1742 61.6828 99.8182 60.6676 100.273 59.4555L105.455 60.9101C104.909 62.6676 103.992 64.2131 102.705 65.5464C101.417 66.8646 99.8258 67.8949 97.9318 68.6373C96.0379 69.3646 93.9091 69.7282 91.5455 69.7282ZM117.222 34.0919L125.585 48.3646L133.949 34.0919H140.131L128.858 51.5464L140.131 69.001H133.949L125.585 55.4555L117.222 69.001H111.04L122.131 51.5464L111.04 34.0919H117.222Z" fill="white"/>
<path d="M329.278 1.06686C331.758 -0.352413 334.988 -0.358823 337.465 1.06686C349.929 8.10944 362.396 15.141 374.858 22.1878C377.201 23.5081 378.769 26.1166 378.745 28.8173V71.1881C378.763 74.0007 377.04 76.6715 374.567 77.9618C362.145 84.9656 349.728 91.9779 337.308 98.9816C334.777 100.429 331.483 100.317 329.031 98.7516C325.307 96.5926 321.576 94.4443 317.851 92.2874C317.09 91.8336 316.232 91.4725 315.695 90.7346C316.17 90.0942 317.019 90.0144 317.71 89.7348C319.264 89.2405 320.692 88.447 322.12 87.677C322.481 87.4298 322.922 87.5245 323.268 87.7457C326.453 89.5717 329.61 91.4508 332.805 93.2593C333.487 93.6529 334.177 93.1304 334.76 92.8056C346.95 85.9158 359.156 79.052 371.344 72.1601C371.795 71.9428 372.045 71.4634 372.008 70.9688C372.017 56.9915 372.011 43.0118 372.013 29.0345C372.064 28.4732 371.739 27.9572 371.232 27.7274C358.852 20.7557 346.479 13.7733 334.102 6.79986C333.887 6.65243 333.633 6.57333 333.373 6.57295C333.113 6.57257 332.859 6.65093 332.644 6.79773C320.266 13.7733 307.895 20.7622 295.518 27.7335C295.012 27.9636 294.673 28.4711 294.733 29.0345C294.735 43.0118 294.733 56.9915 294.733 70.9709C294.712 71.2123 294.765 71.4544 294.885 71.6647C295.005 71.8751 295.187 72.0435 295.406 72.1473C298.709 74.0203 302.016 75.8801 305.321 77.7467C307.183 78.7489 309.47 79.3444 311.521 78.5765C313.331 77.9273 314.6 76.0799 314.566 74.1577C314.583 60.2621 314.557 46.3642 314.579 32.4707C314.533 31.8538 315.119 31.3442 315.718 31.4022C317.305 31.3915 318.894 31.3809 320.482 31.4065C321.144 31.3916 321.6 32.0558 321.518 32.6773C321.512 46.6609 321.535 60.6449 321.507 74.6286C321.512 78.3554 319.98 82.4105 316.533 84.234C312.286 86.434 307.037 85.9674 302.842 83.8579C299.21 82.0451 295.744 79.9057 292.176 77.9636C289.697 76.6804 287.983 73.9989 288 71.1885V28.8173C287.974 26.0606 289.604 23.4048 292.021 22.1038C304.442 15.0943 316.86 8.07952 329.278 1.06686Z" fill="#8CC84B"/>
<path d="M340.114 30.4174C345.531 30.0687 351.33 30.2108 356.205 32.8795C359.979 34.9245 362.072 39.2165 362.138 43.4095C362.033 43.9751 361.442 44.2871 360.902 44.2483C359.33 44.2461 357.758 44.2696 356.186 44.2376C355.52 44.2632 355.132 43.6485 355.048 43.0591C354.597 41.0529 353.503 39.0659 351.614 38.0982C348.716 36.6469 345.355 36.7199 342.194 36.7502C339.886 36.8727 337.405 37.0725 335.45 38.4294C333.949 39.4573 333.493 41.5322 334.029 43.2033C334.534 44.4032 335.919 44.7903 337.052 45.1472C343.581 46.8546 350.498 46.6847 356.902 48.9317C359.553 49.8477 362.147 51.6285 363.054 54.4043C364.241 58.1247 363.721 62.5717 361.074 65.5584C358.928 68.0162 355.801 69.3539 352.683 70.0804C348.535 71.0054 344.23 71.0289 340.018 70.6182C336.056 70.1666 331.934 69.126 328.876 66.427C326.262 64.1565 324.984 60.6189 325.111 57.2044C325.141 56.6278 325.716 56.2257 326.268 56.2731C327.851 56.2603 329.433 56.256 331.016 56.2752C331.648 56.23 332.117 56.7763 332.149 57.3722C332.441 59.2837 333.16 61.2899 334.827 62.4231C338.043 64.4984 342.08 64.3563 345.763 64.4144C348.815 64.2791 352.24 64.2381 354.73 62.2212C356.044 61.0708 356.433 59.1462 356.078 57.4904C355.694 56.0925 354.231 55.4411 352.976 55.0151C346.531 52.9765 339.536 53.7163 333.153 51.4109C330.562 50.4952 328.057 48.7639 327.061 46.1021C325.672 42.3347 326.309 37.6747 329.233 34.7888C332.085 31.9182 336.201 30.8131 340.114 30.4174Z" fill="#8CC84B"/>
</svg>
